<svg height="512pt" viewBox="-7 0 512 512" width="512pt" xmlns="http://www.w3.org/2000/svg"><path d="m468.175781 75.679688-238.085937-63.792969c-16.035156-4.296875-32.515625 5.21875-36.8125 21.253906l-99.066406 369.707031c-4.292969 16.035156 5.222656 32.519532 21.257812 36.816406l238.082031 63.792969c16.035157 4.296875 32.519531-5.21875 36.816407-21.253906l99.0625-369.710937c4.296874-16.035157-5.21875-32.515626-21.253907-36.8125zm0 0" fill="#c5d9ec"/><path d="m448.128906 111.796875-93.867187 350.34375-218.722657-58.601563 93.867188-350.34375zm0 0" fill="#ff6a47"/><path d="m284.058594 7.515625h-246.484375c-16.601563 0-30.058594 13.457031-30.058594 30.058594v382.75c0 16.601562 13.457031 30.058593 30.058594 30.058593h246.484375c16.601562 0 30.058594-13.457031 30.058594-30.058593v-382.75c0-16.601563-13.457032-30.058594-30.058594-30.058594zm0 0" fill="#e3edf6"/><path d="m160.816406 278.121094-46.457031-46.636719c-11.566406-11.613281-11.53125-30.40625.082031-41.976563 11.613282-11.570312 30.40625-11.53125 41.976563.082032l4.398437 4.414062 4.398438-4.414062c11.566406-11.613282 30.363281-11.652344 41.972656-.082032 11.617188 11.570313 11.652344 30.363282.082031 41.976563zm0 0" fill="#ff6a47"/><path d="m350.5 232.460938-7.511719-13.011719 13.015625-7.515625 7.511719 13.015625zm26.035156-15.027344-7.515625-13.015625 13.019531-7.511719 7.511719 13.015625zm0 0" fill="#fff"/><path d="m97.691406 427.839844h-15.03125v-15.03125h15.03125zm-30.058594 0h-37.574218v-37.574219h15.03125v22.542969h22.542968zm-22.542968-52.605469h-15.03125v-15.027344h15.03125zm0 0" fill="#fff"/><path d="m383.109375 480.253906c-2.636719 9.84375-11.582031 16.71875-21.753906 16.71875-1.964844 0-3.933594-.261718-5.855469-.777344l-142.933594-38.296874h71.492188c5.121094 0 10.007812-1.035157 14.460937-2.898438l61.039063 16.359375 97.773437-364.871094-135.703125-36.363281v-25.929688l68.0625 18.238282 3.890625-14.515625-73.105469-19.589844c-4.128906-16.261719-18.890624-28.328125-36.417968-28.328125h-74.71875v15.03125h74.71875c12.429687 0 22.542968 10.113281 22.542968 22.542969v382.75c0 12.429687-10.113281 22.542969-22.542968 22.542969h-194.097656v15.03125h64.535156l197.113281 52.8125c3.1875.855468 6.46875 1.289062 9.746094 1.289062 16.964843 0 31.878906-11.457031 36.273437-27.859375l7.3125-27.296875-14.515625-3.890625zm-34.179687-27.300781-35.320313-9.46875c4.554687-5.796875 7.441406-12.957031 7.9375-20.757813l41.980469-24.238281zm-27.300782-238.53125 107.914063-62.296875-16.507813 61.597656-91.40625 52.769532zm0 69.425781 85.90625-49.59375-16.503906 61.59375-69.402344 40.0625zm0 69.417969 63.898438-36.890625-16.5 61.582031-47.398438 27.367188zm113.414063-221.671875-113.414063 65.472656v-52.050781l70.195313-40.523437 47.101562 12.621093zm-63.75-32.605469-49.664063 28.671875v-41.976562zm0 0"/><path d="m470.117188 68.425781-62.019532-16.621093-3.890625 14.519531 62.019531 16.617187c9.84375 2.636719 16.714844 11.585938 16.714844 21.757813 0 1.964843-.261718 3.933593-.773437 5.855469l-87.851563 327.882812 14.515625 3.890625 87.851563-327.882813c.855468-3.191406 1.289062-6.46875 1.289062-9.746093 0-16.964844-11.457031-31.878907-27.855468-36.273438zm0 0"/><path d="m15.03125 420.324219v-382.75c0-12.429688 10.113281-22.542969 22.542969-22.542969h156.738281v-15.03125h-156.738281c-20.71875 0-37.574219 16.855469-37.574219 37.574219v382.75c0 20.71875 16.855469 37.574219 37.574219 37.574219h37.359375v-15.03125h-37.359375c-12.429688 0-22.542969-10.113282-22.542969-22.542969zm0 0"/><path d="m160.816406 183.386719c-14.539062-13.625-37.453125-13.375-51.679687.796875-14.527344 14.472656-14.574219 38.070312-.101563 52.601562l51.78125 51.980469 51.777344-51.980469c14.476562-14.53125 14.429688-38.128906-.101562-52.601562-14.226563-14.171875-37.136719-14.421875-51.675782-.796875zm47.59375 27.105469c.011719 5.921874-2.285156 11.492187-6.464844 15.6875l-41.128906 41.289062-41.132812-41.289062c-4.179688-4.195313-6.472656-9.765626-6.460938-15.6875.011719-5.921876 2.328125-11.484376 6.523438-15.660157 4.183594-4.167969 9.738281-6.460937 15.640625-6.460937h.042969c5.921874.011718 11.484374 2.324218 15.664062 6.519531l9.722656 9.761719 9.722656-9.761719c4.175782-4.195313 9.738282-6.507813 15.660157-6.519531h.042969c5.90625 0 11.460937 2.292968 15.644531 6.460937 4.195312 4.175781 6.511719 9.738281 6.523437 15.660157zm0 0"/><path d="m94.769531 104.238281-24.804687-71.171875h-12.679688l-24.804687 71.171875 14.191406 4.945313 4.179687-11.992188h25.546876l4.179687 11.992188zm-38.679687-22.078125 7.535156-21.621094 7.535156 21.621094zm0 0"/><path d="m289.148438 353.660156-14.191407-4.945312-4.179687 11.992187h-25.542969l-4.179687-11.992187-14.191407 4.945312 24.800781 71.171875h12.683594zm-38.675782 22.078125h15.066406l-7.53125 21.617188zm0 0"/></svg>