<svg height="512pt" viewBox="0 0 512.01753 512" width="512pt" xmlns="http://www.w3.org/2000/svg"><path d="m501.164062 231.308594-18.6875 60.5-11.011718-20.820313-.851563-1.621093-23.980469-45.480469c-3.148437-6.019531-8.570312-10.527344-15.058593-12.53125-6.488281-2.003907-13.507813-1.332031-19.5 1.863281-1.554688.835938-3.011719 1.835938-4.351563 2.988281-9.371094 7.667969-12.015625 20.886719-6.316406 31.570313l24.664062 46.765625 11.175782 21.160156-38.910156-12.03125-21.589844-6.65625c-12.96875-3.992187-23.808594-12.992187-30.121094-25.003906l-8.960938-16.894531c-3.328124-6.351563-5.304687-13.324219-5.800781-20.480469l-3.414062-50.859375c-.320313-4.242188.203125-8.503906 1.535156-12.542969l66.390625-43.09375 11.175781-7.253906c9.667969-1.902344 19.679688.53125 27.394531 6.65625l40.019532 31.574219c5.640625 4.417968 10.292968 9.972656 13.652344 16.296874l8.960937 16.898438c6.308594 12.011719 7.597656 26.035156 3.585937 38.996094zm0 0" fill="#545c60"/><path d="m480 239.074219-9.386719 30.292969-23.980469-45.480469c-3.148437-6.019531-8.570312-10.527344-15.058593-12.53125-6.488281-2.003907-13.507813-1.332031-19.5 1.863281-1.554688.835938-3.011719 1.835938-4.351563 2.988281-5.972656-.515625-1.023437 11.175781-6.65625 14.164063-10.835937 5.632812 0 14.164062 0 25.597656 0 5.035156 14.507813 20.824219 17.066406 25.601562l17.066407 34.132813-58.453125-18.6875c-12.96875-3.992187-23.808594-12.992187-30.121094-25.003906l-8.960938-16.894531c-3.328124-6.351563-5.304687-13.324219-5.800781-20.480469l-3.414062-50.859375c-.320313-4.242188.203125-8.503906 1.535156-12.542969l66.390625-43.09375c6.371094.707031 12.421875 3.160156 17.492188 7.082031l39.933593 31.574219c5.648438 4.4375 10.324219 9.984375 13.742188 16.300781l8.957031 16.980469c6.292969 12.019531 7.550781 26.046875 3.5 38.996094zm0 0" fill="#7f8e94"/><path d="m407.980469 126.945312c.003906 6.800782-1.359375 13.535157-4.011719 19.796876-10.980469 26.0625-40.988281 38.316406-67.074219 27.394531l-13.054687-5.460938-123.390625-51.628906-7.9375-108.371094c.539062-.070312 1.078125-.097656 1.621093-.085937 3.832032-.183594 7.671876.101562 11.433594.851562 3.605469.617188 7.128906 1.648438 10.496094 3.074219l160.429688 67.242187c19.046874 7.945313 31.460937 26.550782 31.488281 47.1875zm0 0" fill="#f57c00"/><path d="m384.511719 118.414062c.003906 6.800782-1.359375 13.535157-4.011719 19.796876-9.355469 22.230468-32.957031 34.917968-56.660156 30.464843l-123.390625-51.628906-7.9375-108.371094c.539062-.070312 1.078125-.097656 1.621093-.085937 3.832032-.183594 7.671876.101562 11.433594.851562l147.457032 61.78125c19.046874 7.945313 31.460937 26.550782 31.488281 47.191406zm0 0" fill="#ff9801"/><path d="m295.082031 349.835938-118.527343 15.019531-2.304688-2.988281-146.175781-185.085938c-3.257813-4.046875-5.824219-8.601562-7.59375-13.484375-.601563-1.648437-1.113281-3.328125-1.535157-5.03125-.5-1.5625-.871093-3.160156-1.109374-4.78125-.15625-.789063-.269532-1.585937-.34375-2.386719-.269532-2.066406-.414063-4.148437-.425782-6.230468 0-3.734376.429688-7.457032 1.28125-11.09375.101563-.605469.242188-1.207032.425782-1.792969.304687-1.242188.671874-2.464844 1.109374-3.667969.253907-.855469.597657-1.792969.9375-2.644531.703126-1.792969 1.53125-3.53125 2.476563-5.207031.433594-.851563.917969-1.679688 1.449219-2.472657 1.023437-1.625 2.132812-3.246093 3.328125-4.78125 2.488281-3.097656 5.324219-5.90625 8.449219-8.363281l105.984374 51.542969zm0 0" fill="#d84315"/><path d="m269.484375 349.835938-95.234375 12.03125-146.175781-185.085938c-3.257813-4.046875-5.824219-8.601562-7.59375-13.484375-.601563-1.648437-1.113281-3.328125-1.535157-5.03125-.5-1.5625-.871093-3.160156-1.109374-4.78125-.15625-.789063-.269532-1.585937-.34375-2.386719-.269532-2.066406-.414063-4.148437-.425782-6.230468 0-3.734376.429688-7.457032 1.28125-11.09375.101563-.605469.242188-1.207032.425782-1.792969.304687-1.242188.671874-2.464844 1.109374-3.667969.253907-.855469.597657-1.792969.9375-2.644531.703126-1.792969 1.53125-3.53125 2.476563-5.207031.433594-.851563.917969-1.679688 1.449219-2.472657 1.023437-1.625 2.132812-3.246093 3.328125-4.78125l88.832031 43.179688zm0 0" fill="#ff5722"/><path d="m222.464844 102.113281-125.441406 85.164063c-21.710938 14.835937-51.148438 10.691406-67.925782-9.558594-1.171875-1.269531-2.226562-2.636719-3.15625-4.09375-15.882812-23.378906-9.808594-55.203125 13.566406-71.082031l125.441407-85.164063c15.136719-10.335937 34.640625-11.792968 51.144531-3.820312 16.503906 7.96875 27.488281 24.152344 28.804688 42.433594 1.3125 18.28125-7.242188 35.871093-22.433594 46.121093zm0 0" fill="#f57c00"/><path d="m205.398438 88.800781-125.441407 85.164063c-15.082031 10.195312-34.441406 11.621094-50.859375 3.753906-1.171875-1.269531-2.226562-2.636719-3.15625-4.09375-15.882812-23.378906-9.808594-55.203125 13.566406-71.082031l125.441407-85.164063c15.125-10.269531 34.589843-11.667968 51.03125-3.667968 1.097656 1.277343 2.121093 2.617187 3.070312 4.007812 15.851563 23.402344 9.742188 55.222656-13.652343 71.082031zm0 0" fill="#ff9801"/><path d="m85.332031 145.035156c0 9.425782-7.640625 17.070313-17.066406 17.070313s-17.066406-7.644531-17.066406-17.070313c0-9.421875 7.640625-17.066406 17.066406-17.066406s17.066406 7.644531 17.066406 17.066406zm0 0" fill="#d84315"/><path d="m213.332031 59.703125c0 9.425781-7.640625 17.066406-17.066406 17.066406s-17.066406-7.640625-17.066406-17.066406 7.640625-17.066406 17.066406-17.066406 17.066406 7.640625 17.066406 17.066406zm0 0" fill="#d84315"/><path d="m375.464844 127.96875c0 9.425781-7.640625 17.066406-17.066406 17.066406-9.425782 0-17.066407-7.640625-17.066407-17.066406s7.640625-17.066406 17.066407-17.066406c9.425781 0 17.066406 7.640625 17.066406 17.066406zm0 0" fill="#d84315"/><path d="m341.332031 383.96875v68.269531h-170.664062v-68.269531c-.003907-9.050781 3.589843-17.734375 9.992187-24.136719 6.402344-6.402343 15.085938-9.996093 24.140625-9.996093h102.398438c9.054687 0 17.738281 3.59375 24.140625 9.996093 6.402344 6.402344 9.996094 15.085938 9.992187 24.136719zm0 0" fill="#f57c00"/><path d="m315.734375 383.96875v68.269531h-145.066406v-68.269531c-.003907-9.050781 3.589843-17.734375 9.992187-24.136719 6.402344-6.402343 15.085938-9.996093 24.140625-9.996093h76.800781c9.050782 0 17.734376 3.59375 24.136719 9.996093 6.402344 6.402344 9.996094 15.085938 9.996094 24.136719zm0 0" fill="#ff9801"/><path d="m238.933594 401.035156c0 9.425782-7.640625 17.070313-17.066406 17.070313-9.425782 0-17.066407-7.644531-17.066407-17.070313 0-9.421875 7.640625-17.066406 17.066407-17.066406 9.425781 0 17.066406 7.644531 17.066406 17.066406zm0 0" fill="#d84315"/><path d="m307.199219 401.035156c0 9.425782-7.640625 17.070313-17.066407 17.070313-9.425781 0-17.066406-7.644531-17.066406-17.070313 0-9.421875 7.640625-17.066406 17.066406-17.066406 9.425782 0 17.066407 7.644531 17.066407 17.066406zm0 0" fill="#d84315"/><path d="m17.066406 452.238281h477.867188v51.199219h-477.867188zm0 0" fill="#545c60"/><g fill="#283593"><path d="m51.199219 477.835938c.019531 1.148437-.097657 2.292968-.339844 3.414062-.25 1.109375-.59375 2.191406-1.023437 3.242188-.429688 1.011718-.941407 1.980468-1.539063 2.902343-1.296875 1.753907-2.851563 3.308594-4.605469 4.609375-.921875.59375-1.890625 1.109375-2.902344 1.535156-1.050781.429688-2.136718.773438-3.242187 1.023438-1.121094.246094-2.265625.359375-3.414063.339844-1.148437.019531-2.292968-.09375-3.414062-.339844-.253906-.085938-.597656-.171875-.851562-.257812-.824219-.164063-1.625-.421876-2.390626-.765626-1.007812-.425781-1.980468-.941406-2.902343-1.535156-1.753907-1.300781-3.304688-2.855468-4.605469-4.609375-.597656-.921875-1.109375-1.890625-1.535156-2.902343-.433594-1.050782-.773438-2.132813-1.027344-3.242188-.453125-2.253906-.453125-4.574219 0-6.828125.253906-1.105469.59375-2.191406 1.027344-3.242187.425781-1.007813.9375-1.980469 1.535156-2.898438 1.300781-1.757812 2.851562-3.308594 4.605469-4.609375.921875-.59375 1.894531-1.109375 2.902343-1.535156.765626-.347657 1.566407-.605469 2.390626-.769531.253906-.085938.597656-.171876.851562-.253907 1.121094-.246093 2.265625-.359375 3.414062-.34375 1.148438-.015625 2.292969.097657 3.414063.34375 1.105469.25 2.191406.59375 3.242187 1.023438 1.011719.425781 1.980469.941406 2.902344 1.535156 1.753906 1.300781 3.308594 2.851563 4.605469 4.609375.597656.917969 1.109375 1.890625 1.539063 2.898438.429687 1.050781.773437 2.136718 1.023437 3.242187.242187 1.121094.359375 2.269531.339844 3.414063zm0 0"/><path d="m162.132812 477.835938c.019532 1.148437-.097656 2.292968-.339843 3.414062-.25 1.109375-.59375 2.191406-1.023438 3.242188-.429687 1.011718-.941406 1.980468-1.539062 2.902343-1.296875 1.753907-2.851563 3.308594-4.605469 4.609375-.921875.59375-1.890625 1.109375-2.902344 1.535156-1.050781.429688-2.136718.773438-3.242187 1.023438-2.253907.453125-4.574219.453125-6.828125 0-.253906-.085938-.597656-.171875-.851563-.257812-.824219-.164063-1.625-.421876-2.390625-.765626-1.007812-.425781-1.980468-.941406-2.902344-1.535156-1.753906-1.300781-3.304687-2.855468-4.605468-4.609375-.597656-.921875-1.109375-1.890625-1.535156-2.902343-.433594-1.050782-.773438-2.132813-1.027344-3.242188-.453125-2.253906-.453125-4.574219 0-6.828125.253906-1.105469.59375-2.191406 1.027344-3.242187.425781-1.007813.9375-1.980469 1.535156-2.898438 1.300781-1.757812 2.851562-3.308594 4.605468-4.609375.921876-.59375 1.894532-1.109375 2.902344-1.535156.765625-.347657 1.566406-.605469 2.390625-.769531.253907-.085938.597657-.171876.851563-.253907 2.253906-.457031 4.574218-.457031 6.828125 0 1.105469.25 2.191406.59375 3.242187 1.023438 1.011719.425781 1.980469.941406 2.902344 1.535156 1.753906 1.300781 3.308594 2.851563 4.605469 4.609375.597656.917969 1.109375 1.890625 1.539062 2.898438.429688 1.050781.773438 2.136718 1.023438 3.242187.242187 1.121094.359375 2.269531.339843 3.414063zm0 0"/><path d="m384 477.835938c.015625 1.148437-.097656 2.292968-.339844 3.414062-.253906 1.109375-.59375 2.191406-1.027344 3.242188-.425781 1.011718-.9375 1.980468-1.535156 2.902343-1.300781 1.753907-2.851562 3.308594-4.605468 4.609375-.921876.59375-1.894532 1.109375-2.902344 1.535156-1.050782.429688-2.136719.773438-3.242188 1.023438-2.253906.453125-4.574218.453125-6.828125 0-.253906-.085938-.597656-.171875-.851562-.257812-.824219-.164063-1.625-.421876-2.390625-.765626-1.011719-.425781-1.980469-.941406-2.902344-1.535156-1.753906-1.300781-3.308594-2.855468-4.605469-4.609375-.597656-.921875-1.109375-1.890625-1.539062-2.902343-.429688-1.050782-.773438-2.132813-1.023438-3.242188-.453125-2.253906-.453125-4.574219 0-6.828125.25-1.105469.59375-2.191406 1.023438-3.242187.429687-1.007813.941406-1.980469 1.539062-2.898438 1.296875-1.757812 2.851563-3.308594 4.605469-4.609375.921875-.59375 1.890625-1.109375 2.902344-1.535156.765625-.347657 1.566406-.605469 2.390625-.769531.253906-.085938.597656-.171876.851562-.253907 2.253907-.457031 4.574219-.457031 6.828125 0 1.105469.25 2.191406.59375 3.242188 1.023438 1.007812.425781 1.980468.941406 2.902344 1.535156 1.753906 1.300781 3.304687 2.851563 4.605468 4.609375.597656.917969 1.109375 1.890625 1.535156 2.898438.433594 1.050781.773438 2.136718 1.027344 3.242187.242188 1.121094.355469 2.269531.339844 3.414063zm0 0"/><path d="m273.066406 477.835938c.019532 1.148437-.097656 2.292968-.339844 3.414062-.253906 1.109375-.59375 2.191406-1.023437 3.242188-.429687 1.011718-.941406 1.980468-1.539063 2.902343-1.296874 1.753907-2.851562 3.308594-4.605468 4.609375-.921875.59375-1.894532 1.109375-2.902344 1.535156-1.050781.429688-2.136719.773438-3.242188 1.023438-2.253906.453125-4.574218.453125-6.828124 0-.253907-.085938-.597657-.171875-.851563-.257812-.824219-.164063-1.625-.421876-2.390625-.765626-1.007812-.425781-1.980469-.941406-2.902344-1.535156-1.753906-1.300781-3.308594-2.855468-4.605468-4.609375-.597657-.921875-1.109376-1.890625-1.539063-2.902343-.429687-1.050782-.769531-2.132813-1.023437-3.242188-.453126-2.253906-.453126-4.574219 0-6.828125.253906-1.105469.59375-2.191406 1.023437-3.242187.429687-1.007813.941406-1.980469 1.539063-2.898438 1.296874-1.757812 2.851562-3.308594 4.605468-4.609375.921875-.59375 1.894532-1.109375 2.902344-1.535156.765625-.347657 1.566406-.605469 2.390625-.769531.253906-.085938.597656-.171876.851563-.253907 2.253906-.457031 4.574218-.457031 6.828124 0 1.105469.25 2.191407.59375 3.242188 1.023438 1.007812.425781 1.980469.941406 2.902344 1.535156 1.753906 1.300781 3.308594 2.851563 4.605468 4.609375.597657.917969 1.109376 1.890625 1.539063 2.898438.429687 1.050781.769531 2.136718 1.023437 3.242187.242188 1.121094.359376 2.269531.339844 3.414063zm0 0"/><path d="m477.867188 494.902344c-1.15625 0-2.308594-.113282-3.441407-.34375-2.183593-.449219-4.253906-1.320313-6.101562-2.570313-2.742188-1.851562-4.890625-4.460937-6.183594-7.507812-.4375-1.035157-.769531-2.105469-.996094-3.203125-.230469-1.132813-.34375-2.285156-.34375-3.441406 0-1.152344.113281-2.304688.34375-3.4375.449219-2.183594 1.320313-4.257813 2.570313-6.101563 1.851562-2.746094 4.460937-4.894531 7.507812-6.183594 1.035156-.4375 2.105469-.769531 3.203125-.996093 1.132813-.230469 2.285157-.347657 3.441407-.347657s2.308593.117188 3.4375.347657c2.183593.445312 4.257812 1.320312 6.105468 2.566406 2.742188 1.855468 4.890625 4.460937 6.183594 7.511718.433594 1.03125.769531 2.105469.992188 3.203126.230468 1.132812.347656 2.285156.347656 3.4375 0 1.15625-.117188 2.308593-.347656 3.441406-.445313 2.183594-1.320313 4.257812-2.566407 6.101562-1.855469 2.742188-4.460937 4.890625-7.511719 6.183594-1.03125.4375-2.105468.769531-3.203124.996094-1.128907.230468-2.28125.34375-3.4375.34375zm0 0"/></g><path d="m42.667969 477.835938c.015625 1.148437-.097657 2.292968-.34375 3.414062-.25 1.109375-.59375 2.191406-1.023438 3.242188-.425781 1.011718-.941406 1.980468-1.535156 2.902343-.640625.882813-1.355469 1.710938-2.132813 2.472657-.765624.78125-1.589843 1.496093-2.476562 2.136718-.917969.59375-1.890625 1.109375-2.898438 1.535156-.765624.34375-1.570312.601563-2.390624.765626-.824219-.164063-1.625-.421876-2.390626-.765626-1.007812-.425781-1.980468-.941406-2.902343-1.535156-1.753907-1.300781-3.304688-2.855468-4.605469-4.609375-.597656-.921875-1.109375-1.890625-1.535156-2.902343-.433594-1.050782-.773438-2.132813-1.027344-3.242188-.453125-2.253906-.453125-4.574219 0-6.828125.253906-1.105469.59375-2.191406 1.027344-3.242187.425781-1.007813.9375-1.980469 1.535156-2.898438 1.300781-1.757812 2.851562-3.308594 4.605469-4.609375.921875-.59375 1.894531-1.109375 2.902343-1.535156.765626-.347657 1.566407-.605469 2.390626-.769531.820312.164062 1.625.421874 2.390624.769531 1.007813.425781 1.980469.941406 2.898438 1.535156.886719.640625 1.710938 1.351563 2.476562 2.132813.777344.761718 1.492188 1.589843 2.132813 2.476562.59375.917969 1.109375 1.890625 1.535156 2.898438.429688 1.050781.773438 2.136718 1.023438 3.242187.246093 1.121094.359375 2.269531.34375 3.414063zm0 0" fill="#3f51b5"/><path d="m153.601562 477.835938c.015626 1.148437-.097656 2.292968-.34375 3.414062-.25 1.109375-.59375 2.191406-1.023437 3.242188-.425781 1.011718-.941406 1.980468-1.535156 2.902343-1.300781 1.753907-2.851563 3.308594-4.609375 4.609375-.917969.59375-1.890625 1.109375-2.902344 1.535156-.761719.34375-1.566406.601563-2.386719.765626-.824219-.164063-1.625-.421876-2.390625-.765626-1.007812-.425781-1.980468-.941406-2.902344-1.535156-1.753906-1.300781-3.304687-2.855468-4.605468-4.609375-.597656-.921875-1.109375-1.890625-1.535156-2.902343-.433594-1.050782-.773438-2.132813-1.027344-3.242188-.453125-2.253906-.453125-4.574219 0-6.828125.253906-1.105469.59375-2.191406 1.027344-3.242187.425781-1.007813.9375-1.980469 1.535156-2.898438 1.300781-1.757812 2.851562-3.308594 4.605468-4.609375.921876-.59375 1.894532-1.109375 2.902344-1.535156.765625-.347657 1.566406-.605469 2.390625-.769531.820313.164062 1.625.421874 2.386719.769531 1.011719.425781 1.984375.941406 2.902344 1.535156 1.757812 1.300781 3.308594 2.851563 4.609375 4.609375.59375.917969 1.109375 1.890625 1.535156 2.898438.429687 1.050781.773437 2.136718 1.023437 3.242187.246094 1.121094.359376 2.269531.34375 3.414063zm0 0" fill="#3f51b5"/><path d="m375.464844 477.835938c.019531 1.148437-.09375 2.292968-.339844 3.414062-.25 1.109375-.59375 2.191406-1.023438 3.242188-.425781 1.011718-.941406 1.980468-1.535156 2.902343-1.300781 1.753907-2.855468 3.308594-4.609375 4.609375-.921875.59375-1.890625 1.109375-2.902343 1.535156-.765626.34375-1.566407.601563-2.386719.765626-.824219-.164063-1.625-.421876-2.390625-.765626-1.011719-.425781-1.980469-.941406-2.902344-1.535156-1.753906-1.300781-3.308594-2.855468-4.605469-4.609375-.597656-.921875-1.109375-1.890625-1.539062-2.902343-.429688-1.050782-.773438-2.132813-1.023438-3.242188-.453125-2.253906-.453125-4.574219 0-6.828125.25-1.105469.59375-2.191406 1.023438-3.242187.429687-1.007813.941406-1.980469 1.539062-2.898438 1.296875-1.757812 2.851563-3.308594 4.605469-4.609375.921875-.59375 1.890625-1.109375 2.902344-1.535156.765625-.347657 1.566406-.605469 2.390625-.769531.820312.164062 1.621093.421874 2.386719.769531 1.011718.425781 1.980468.941406 2.902343 1.535156 1.753907 1.300781 3.308594 2.851563 4.609375 4.609375.59375.917969 1.109375 1.890625 1.535156 2.898438.429688 1.050781.773438 2.136718 1.023438 3.242187.246094 1.121094.359375 2.269531.339844 3.414063zm0 0" fill="#3f51b5"/><path d="m264.535156 477.835938c.015625 1.148437-.097656 2.292968-.34375 3.414062-.25 1.109375-.59375 2.191406-1.023437 3.242188-.425781 1.011718-.941407 1.980468-1.535157 2.902343-1.300781 1.753907-2.855468 3.308594-4.609374 4.609375-.921876.59375-1.890626 1.109375-2.902344 1.535156-.761719.34375-1.566406.601563-2.386719.765626-.824219-.164063-1.625-.421876-2.390625-.765626-1.007812-.425781-1.980469-.941406-2.902344-1.535156-1.753906-1.300781-3.308594-2.855468-4.605468-4.609375-.597657-.921875-1.109376-1.890625-1.539063-2.902343-.429687-1.050782-.769531-2.132813-1.023437-3.242188-.453126-2.253906-.453126-4.574219 0-6.828125.253906-1.105469.59375-2.191406 1.023437-3.242187.429687-1.007813.941406-1.980469 1.539063-2.898438 1.296874-1.757812 2.851562-3.308594 4.605468-4.609375.921875-.59375 1.894532-1.109375 2.902344-1.535156.765625-.347657 1.566406-.605469 2.390625-.769531.820313.164062 1.625.421874 2.386719.769531 1.011718.425781 1.980468.941406 2.902344 1.535156 1.753906 1.300781 3.308593 2.851563 4.609374 4.609375.59375.917969 1.109376 1.890625 1.535157 2.898438.429687 1.050781.773437 2.136718 1.023437 3.242187.246094 1.121094.359375 2.269531.34375 3.414063zm0 0" fill="#3f51b5"/><path d="m469.332031 494.902344c-1.152343 0-2.304687-.113282-3.4375-.34375-2.183593-.449219-4.257812-1.320313-6.101562-2.570313-2.746094-1.851562-4.894531-4.460937-6.183594-7.507812-.4375-1.035157-.769531-2.105469-.996094-3.203125-.230469-1.132813-.347656-2.285156-.347656-3.441406 0-1.152344.117187-2.304688.347656-3.4375.449219-2.183594 1.320313-4.257813 2.570313-6.101563 1.851562-2.746094 4.460937-4.894531 7.507812-6.183594 1.03125-.4375 2.105469-.769531 3.203125-.996093 1.132813-.230469 2.285157-.347657 3.4375-.347657 1.15625 0 2.308594.117188 3.441407.347657 2.183593.445312 4.257812 1.320312 6.101562 2.566406 2.746094 1.855468 4.890625 4.460937 6.183594 7.511718.4375 1.03125.769531 2.105469.996094 3.203126.230468 1.132812.347656 2.285156.34375 3.4375.003906 1.15625-.113282 2.308593-.34375 3.441406-.449219 2.183594-1.320313 4.257812-2.570313 6.101562-1.851563 2.742188-4.460937 4.890625-7.507813 6.183594-1.03125.4375-2.105468.769531-3.203124.996094-1.132813.230468-2.285157.34375-3.441407.34375zm0 0" fill="#3f51b5"/><path d="m477.867188 511.96875h-443.734376c-18.851562 0-34.132812-15.28125-34.132812-34.132812 0-18.851563 15.28125-34.132813 34.132812-34.132813h443.734376c18.851562 0 34.132812 15.28125 34.132812 34.132813 0 18.851562-15.28125 34.132812-34.132812 34.132812zm-443.734376-51.199219c-9.425781 0-17.066406 7.640625-17.066406 17.066407 0 9.425781 7.640625 17.066406 17.066406 17.066406h443.734376c9.425781 0 17.066406-7.640625 17.066406-17.066406 0-9.425782-7.640625-17.066407-17.066406-17.066407zm0 0"/><path d="m34.132812 511.96875c-18.851562 0-34.132812-15.28125-34.132812-34.132812 0-18.851563 15.28125-34.132813 34.132812-34.132813 18.851563 0 34.132813 15.28125 34.132813 34.132813-.019531 18.84375-15.289063 34.113281-34.132813 34.132812zm0-51.199219c-9.425781 0-17.066406 7.640625-17.066406 17.066407 0 9.425781 7.640625 17.066406 17.066406 17.066406 9.425782 0 17.066407-7.640625 17.066407-17.066406-.011719-9.421876-7.644531-17.054688-17.066407-17.066407zm0 0"/><path d="m145.066406 511.96875c-18.851562 0-34.132812-15.28125-34.132812-34.132812 0-18.851563 15.28125-34.132813 34.132812-34.132813 18.851563 0 34.132813 15.28125 34.132813 34.132813-.019531 18.84375-15.289063 34.113281-34.132813 34.132812zm0-51.199219c-9.425781 0-17.066406 7.640625-17.066406 17.066407 0 9.425781 7.640625 17.066406 17.066406 17.066406 9.425782 0 17.066406-7.640625 17.066406-17.066406-.011718-9.421876-7.644531-17.054688-17.066406-17.066407zm0 0"/><path d="m366.933594 511.96875c-18.851563 0-34.132813-15.28125-34.132813-34.132812 0-18.851563 15.28125-34.132813 34.132813-34.132813 18.851562 0 34.132812 15.28125 34.132812 34.132813-.019531 18.84375-15.289062 34.113281-34.132812 34.132812zm0-51.199219c-9.425782 0-17.066406 7.640625-17.066406 17.066407 0 9.425781 7.640624 17.066406 17.066406 17.066406 9.425781 0 17.066406-7.640625 17.066406-17.066406-.011719-9.421876-7.644531-17.054688-17.066406-17.066407zm0 0"/><path d="m256 511.96875c-18.851562 0-34.132812-15.28125-34.132812-34.132812 0-18.851563 15.28125-34.132813 34.132812-34.132813s34.132812 15.28125 34.132812 34.132813c-.019531 18.84375-15.289062 34.113281-34.132812 34.132812zm0-51.199219c-9.425781 0-17.066406 7.640625-17.066406 17.066407 0 9.425781 7.640625 17.066406 17.066406 17.066406s17.066406-7.640625 17.066406-17.066406c-.011718-9.421876-7.644531-17.054688-17.066406-17.066407zm0 0"/><path d="m477.867188 511.96875c-18.851563 0-34.132813-15.28125-34.132813-34.132812 0-18.851563 15.28125-34.132813 34.132813-34.132813 18.851562 0 34.132812 15.28125 34.132812 34.132813-.019531 18.84375-15.289062 34.113281-34.132812 34.132812zm0-51.199219c-9.425782 0-17.066407 7.640625-17.066407 17.066407 0 9.425781 7.640625 17.066406 17.066407 17.066406 9.425781 0 17.066406-7.640625 17.066406-17.066406-.011719-9.421876-7.644532-17.054688-17.066406-17.066407zm0 0"/><path d="m341.332031 460.769531h-170.664062c-4.714844 0-8.535157-3.820312-8.535157-8.53125v-68.269531c.027344-23.550781 19.113282-42.636719 42.667969-42.664062h102.398438c23.554687.027343 42.640625 19.113281 42.667969 42.664062v68.269531c0 4.710938-3.820313 8.53125-8.535157 8.53125zm-162.132812-17.066406h153.601562v-59.734375c-.015625-14.128906-11.46875-25.582031-25.601562-25.597656h-102.398438c-14.132812.015625-25.585937 11.46875-25.601562 25.597656zm0 0"/><path d="m93.867188 486.371094h-8.535157c-4.710937 0-8.53125-3.820313-8.53125-8.535156 0-4.710938 3.820313-8.53125 8.53125-8.53125h8.535157c4.710937 0 8.53125 3.820312 8.53125 8.53125 0 4.714843-3.820313 8.535156-8.53125 8.535156zm0 0"/><path d="m204.800781 486.371094h-8.535156c-4.710937 0-8.53125-3.820313-8.53125-8.535156 0-4.710938 3.820313-8.53125 8.53125-8.53125h8.535156c4.710938 0 8.53125 3.820312 8.53125 8.53125 0 4.714843-3.820312 8.535156-8.53125 8.535156zm0 0"/><path d="m315.734375 486.371094h-8.535156c-4.710938 0-8.53125-3.820313-8.53125-8.535156 0-4.710938 3.820312-8.53125 8.53125-8.53125h8.535156c4.710937 0 8.53125 3.820312 8.53125 8.53125 0 4.714843-3.820313 8.535156-8.53125 8.535156zm0 0"/><path d="m426.667969 486.371094h-8.535157c-4.710937 0-8.53125-3.820313-8.53125-8.535156 0-4.710938 3.820313-8.53125 8.53125-8.53125h8.535157c4.710937 0 8.53125 3.820312 8.53125 8.53125 0 4.714843-3.820313 8.535156-8.53125 8.535156zm0 0"/><path d="m221.867188 426.636719c-10.355469 0-19.6875-6.238281-23.652344-15.804688-3.960938-9.5625-1.773438-20.574219 5.550781-27.898437 7.320313-7.320313 18.332031-9.511719 27.898437-5.546875 9.566407 3.960937 15.800782 13.296875 15.800782 23.648437-.015625 14.132813-11.464844 25.585938-25.597656 25.601563zm0-34.132813c-4.714844 0-8.535157 3.820313-8.535157 8.53125 0 4.714844 3.820313 8.535156 8.535157 8.535156 4.710937 0 8.53125-3.820312 8.53125-8.535156-.003907-4.710937-3.820313-8.527344-8.53125-8.53125zm0 0"/><path d="m290.132812 426.636719c-10.355468 0-19.6875-6.238281-23.652343-15.804688-3.960938-9.5625-1.769531-20.574219 5.550781-27.898437 7.320312-7.320313 18.332031-9.511719 27.898438-5.546875 9.566406 3.960937 15.804687 13.296875 15.804687 23.648437-.015625 14.132813-11.46875 25.585938-25.601563 25.601563zm0-34.132813c-4.710937 0-8.53125 3.820313-8.53125 8.53125 0 4.714844 3.820313 8.535156 8.53125 8.535156 4.714844 0 8.535157-3.820312 8.535157-8.535156-.003907-4.710937-3.824219-8.527344-8.535157-8.53125zm0 0"/><path d="m295.09375 358.371094c-2.617188.003906-5.09375-1.195313-6.710938-3.25l-152.574218-193.453125c-2.800782-3.703125-2.125-8.96875 1.523437-11.84375 3.644531-2.875 8.921875-2.308594 11.871094 1.277343l152.578125 193.453126c2.023438 2.5625 2.402344 6.058593.980469 9-1.425781 2.941406-4.402344 4.8125-7.667969 4.816406zm0 0"/><path d="m176.566406 373.390625c-2.613281.003906-5.089844-1.191406-6.707031-3.246094l-148.480469-188.074219c-3.835937-4.777343-6.855468-10.152343-8.9375-15.914062-.699218-1.910156-1.292968-3.859375-1.785156-5.835938-.5625-1.792968-.980469-3.628906-1.25-5.492187-.140625-.582031-.28125-1.738281-.398438-2.777344-.304687-2.382812-.464843-4.78125-.472656-7.183593-.007812-4.390626.5-8.765626 1.507813-13.039063.125-.761719.308593-1.515625.546875-2.25.273437-1.164063.613281-2.308594 1.019531-3.433594.433594-1.382812.855469-2.570312 1.289063-3.648437.832031-2.121094 1.8125-4.179688 2.933593-6.164063.546875-1.074219 1.164063-2.117187 1.84375-3.117187 1.007813-1.621094 2.289063-3.472656 3.65625-5.234375 2.941407-3.6875 6.304688-7.015625 10.019531-9.917969 2.417969-1.902344 5.675782-2.351562 8.519532-1.179688 2.84375 1.175782 4.835937 3.785157 5.214844 6.839844.378906 3.054688-.914063 6.074219-3.386719 7.90625-2.609375 2.066406-4.976563 4.421875-7.050781 7.027344-.851563 1.09375-1.796876 2.480469-2.671876 3.863281-.382812.558594-.726562 1.140625-1.035156 1.742188-.816406 1.417969-1.527344 2.894531-2.132812 4.414062-.308594.792969-.566406 1.480469-.757813 2.109375-.515625 1.550782-.777343 2.273438-.933593 3l-8.703126-.425781 8.371094 1.648437c-.769531 3.230469-1.167968 6.539063-1.183594 9.859376.007813 1.722656.128907 3.449218.355469 5.15625.078125.65625.117188 1.183593.21875 1.660156.1875 1.316406.476563 2.621094.867188 3.894531.53125 2.027344.949219 3.429687 1.441406 4.757813 1.457031 4.035156 3.578125 7.800781 6.273437 11.136718l148.5 188.09375c2.027344 2.566406 2.410157 6.0625.984376 9.007813-1.421876 2.941406-4.40625 4.8125-7.675782 4.816406zm0 0"/><path d="m68.398438 204.660156c-3.808594 0-7.613282-.363281-11.355469-1.082031-23.730469-4.539063-42.386719-22.929687-47.273438-46.59375-4.882812-23.660156 4.96875-47.933594 24.960938-61.5l125.441406-85.128906c27.296875-18.527344 64.445313-11.414063 82.96875 15.886719 18.527344 27.296874 11.414063 64.445312-15.886719 82.96875l-125.4375 85.125c-9.851562 6.71875-21.492187 10.316406-33.417968 10.324218zm125.25-187.53125c-8.523438-.007812-16.851563 2.554688-23.898438 7.351563l-125.433594 85.128906c-12.785156 8.484375-20.027344 23.1875-18.964844 38.496094 1.058594 15.3125 10.261719 28.871093 24.097657 35.515625 13.835937 6.640625 30.175781 5.339844 42.785156-3.410156l125.433594-85.125c19.496093-13.230469 24.578125-39.761719 11.347656-59.261719-7.953125-11.714844-21.203125-18.71875-35.367187-18.695313zm0 0"/><path d="m356.632812 186.644531c-7.90625 0-15.734374-1.574219-23.023437-4.636719l-136.449219-57.089843c-2.878906-1.128907-4.917968-3.730469-5.335937-6.792969-.414063-3.066406.863281-6.117188 3.335937-7.972656 2.472656-1.855469 5.757813-2.230469 8.582032-.972656l136.449218 57.085937c21.742188 9.082031 46.734375-1.121094 55.910156-22.824219 4.398438-10.433594 4.457032-22.1875.160157-32.664062-4.296875-10.476563-12.59375-18.804688-23.054688-23.144532l-160.441406-67.242187c-5.765625-2.414063-11.992187-3.535156-18.242187-3.273437-4.6875.199218-8.816407-3.066407-9.699219-7.675782-.378907-2.078125.089843-4.222656 1.300781-5.953125s3.066406-2.90625 5.148438-3.261719c.949218-.125 1.902343-.1835932 2.859374-.1718745 8.640626-.3437495 17.253907 1.2226565 25.21875 4.5898435l160.441407 67.242188c26.273437 10.96875 41.144531 38.972656 35.511719 66.882812-5.632813 27.910157-30.199219 47.957031-58.671876 47.875zm0 0"/><path d="m68.265625 170.636719c-14.136719 0-25.597656-11.460938-25.597656-25.601563 0-14.136718 11.460937-25.597656 25.597656-25.597656 14.140625 0 25.601563 11.460938 25.601563 25.597656-.015626 14.132813-11.46875 25.585938-25.601563 25.601563zm0-34.132813c-4.710937 0-8.53125 3.820313-8.53125 8.53125 0 4.714844 3.820313 8.535156 8.53125 8.535156 4.714844 0 8.535156-3.820312 8.535156-8.535156-.003906-4.710937-3.824219-8.527344-8.535156-8.53125zm0 0"/><path d="m196.265625 85.304688c-14.136719 0-25.597656-11.460938-25.597656-25.601563 0-14.136719 11.460937-25.597656 25.597656-25.597656 14.140625 0 25.601563 11.460937 25.601563 25.597656-.015626 14.132813-11.46875 25.585937-25.601563 25.601563zm0-34.132813c-4.710937 0-8.53125 3.820313-8.53125 8.53125 0 4.714844 3.820313 8.535156 8.53125 8.535156 4.714844 0 8.535156-3.820312 8.535156-8.535156-.003906-4.710937-3.824219-8.527344-8.535156-8.53125zm0 0"/><path d="m358.398438 153.570312c-14.136719 0-25.597657-11.460937-25.597657-25.601562 0-14.136719 11.460938-25.597656 25.597657-25.597656 14.140624 0 25.601562 11.460937 25.601562 25.597656-.015625 14.132812-11.46875 25.585938-25.601562 25.601562zm0-34.132812c-4.710938 0-8.53125 3.820312-8.53125 8.53125 0 4.714844 3.820312 8.535156 8.53125 8.535156 4.714843 0 8.535156-3.820312 8.535156-8.535156-.003906-4.710938-3.824219-8.527344-8.535156-8.53125zm0 0"/><path d="m196.273438 315.703125c-2.59375.003906-5.050782-1.175781-6.671876-3.203125l-68.269531-85.332031c-1.902343-2.382813-2.390625-5.601563-1.28125-8.441407 1.113281-2.835937 3.652344-4.867187 6.667969-5.328124 3.015625-.457032 6.042969.726562 7.949219 3.109374l68.265625 85.332032c2.046875 2.5625 2.445312 6.070312 1.027344 9.023437-1.421876 2.957031-4.40625 4.835938-7.6875 4.839844zm0 0"/><path d="m93.875 119.4375c-3.710938.003906-7-2.390625-8.136719-5.925781-1.132812-3.535157.148438-7.398438 3.167969-9.554688l59.734375-42.667969c3.835937-2.738281 9.167969-1.847656 11.90625 1.988282 2.738281 3.835937 1.847656 9.167968-1.988281 11.90625l-59.734375 42.667968c-1.441407 1.03125-3.171875 1.585938-4.949219 1.585938zm0 0"/><path d="m110.941406 145.035156c-3.710937.007813-7-2.390625-8.136718-5.925781-1.132813-3.53125.148437-7.394531 3.171874-9.550781l59.730469-42.667969c3.835938-2.738281 9.167969-1.847656 11.90625 1.988281 2.738281 3.835938 1.847657 9.164063-1.988281 11.90625l-59.734375 42.664063c-1.441406 1.035156-3.171875 1.589843-4.949219 1.585937zm0 0"/><path d="m437.246094 324.238281c-.851563 0-1.699219-.128906-2.515625-.378906l-60.5-18.6875c-15.160157-4.632813-27.828125-15.148437-35.167969-29.191406l-8.941406-16.867188c-3.875-7.40625-6.179688-15.527343-6.773438-23.863281l-3.414062-50.902344c-.398438-5.332031.257812-10.6875 1.941406-15.765625.871094-2.988281 3.300781-5.269531 6.34375-5.941406 3.039062-.675781 6.207031.359375 8.261719 2.699219 2.054687 2.339844 2.671875 5.617187 1.609375 8.542968-.984375 2.972657-1.371094 6.109376-1.136719 9.230469l3.414063 50.953125c.421874 5.960938 2.070312 11.773438 4.84375 17.066406l8.949218 16.882813c5.234375 10.035156 14.28125 17.546875 25.109375 20.847656l40.816407 12.609375-26.234376-49.710937c-5.832031-10.792969-5.417968-23.882813 1.082032-34.285157 6.5-10.402343 18.082031-16.515624 30.339844-16.007812 12.253906.511719 23.292968 7.558594 28.910156 18.464844l26.214844 49.675781 12.609374-40.816406c3.367188-10.804688 2.289063-22.503907-3-32.511719l-8.933593-16.871094c-2.808594-5.273437-6.6875-9.902344-11.390625-13.589844l-40.023438-31.574218c-5.75-4.589844-13.230468-6.417969-20.449218-4.988282-2.988282.59375-6.070313-.453124-8.078126-2.746093-2.007812-2.296875-2.640624-5.488281-1.65625-8.371094.980469-2.886719 3.425782-5.03125 6.417969-5.625 12.125-2.402344 24.6875.652344 34.359375 8.347656l40 31.554688c6.570313 5.167969 11.992188 11.648437 15.914063 19.027343l8.953125 16.875c7.40625 14.007813 8.914062 30.390626 4.199218 45.515626l-18.6875 60.5c-1.019531 3.296874-3.925781 5.65625-7.363281 5.976562s-6.730469-1.460938-8.339843-4.515625l-35.839844-67.925781c-2.820313-5.414063-8.328125-8.90625-14.429688-9.152344-6.101562-.246094-11.871094 2.792969-15.117187 7.96875-3.246094 5.171875-3.476563 11.6875-.601563 17.078125l35.867188 67.957031c1.390625 2.648438 1.296875 5.832032-.25 8.390625-1.546875 2.558594-4.320313 4.125-7.3125 4.125zm0 0"/></svg>