<svg height="502pt" viewBox="-28 0 502 502.52239" width="502pt" xmlns="http://www.w3.org/2000/svg"><path d="m188.027344 382.640625c-1.558594 1.570313-4.09375 1.570313-5.652344 0-1.5625-1.558594-1.5625-4.09375 0-5.652344l169.796875-169.816406c1.5625-1.5625 4.097656-1.5625 5.65625 0 1.5625 1.558594 1.5625 4.09375 0 5.65625zm0 0" fill="#e29f33"/><path d="m369.132812 224.164062c-1.558593 1.558594-4.09375 1.558594-5.65625 0l-39.605468-39.617187c-1.5625-1.570313-1.5625-4.097656 0-5.664063 1.558594-1.558593 4.09375-1.558593 5.652344 0l39.609374 39.625c1.570313 1.566407 1.570313 4.09375 0 5.65625zm0 0" fill="#f6bb42"/><path d="m188.101562 382.546875-28.296874 28.273437c-1.558594 1.558594-4.09375 1.558594-5.65625 0-1.558594-1.5625-1.558594-4.097656 0-5.65625l28.296874-28.273437c1.558594-1.566406 4.097657-1.566406 5.65625 0 1.566407 1.558594 1.566407 4.097656 0 5.65625zm0 0" fill="#e29f33"/><path d="m159.804688 422.144531c-1.558594 1.5625-4.09375 1.5625-5.65625 0-4.65625-4.664062-4.671876-12.277343-.015626-16.964843.015626-.007813.015626-.007813.015626-.015626 1.5625-1.554687 4.082031-1.5625 5.640624-.007812 1.574219 1.550781 1.59375 4.085938.03125 5.652344-1.558593 1.570312-1.574218 4.121094-.015624 5.683594 1.558593 1.558593 1.570312 4.09375 0 5.652343zm0 0" fill="#e29f33"/><path d="m120.191406 303.40625 17.003906-16.992188 33.925782 33.941407-17.003906 16.996093zm0 0" fill="#ffce54"/><path d="m148.492188 275.089844 16.996093-16.996094 33.941407 33.941406-16.996094 16.996094zm0 0" fill="#ffce54"/><path d="m176.777344 246.8125 16.984375-17 33.945312 33.914062-16.988281 17zm0 0" fill="#ffce54"/><path d="m227.703125 354.265625.054687-.046875 11.3125 11.3125-.058593.046875-11.308594 11.3125-11.3125-11.3125zm0 0" fill="#edab37"/><path d="m256.046875 348.535156-11.3125-11.316406 11.382813-11.371094 11.308593 11.316406zm0 0" fill="#edab37"/><path d="m154.148438 280.722656.066406-.054687 11.308594 11.308593-.046876.074219-11.328124 11.3125-11.296876-11.304687zm0 0" fill="#edab37"/><path d="m182.511719 275.003906-11.316407-11.316406 11.367188-11.363281 11.3125 11.3125zm0 0" fill="#edab37"/><path d="m137.195312 286.402344c3.097657 3.105468 1.859376 9.433594-2.832031 14.144531-4.46875 4.464844-10.46875 5.800781-13.703125 3.167969-.167968-.066406-.328125-.234375-.4375-.34375-3.167968-3.167969-1.875-9.457032 2.832032-14.136719 4.6875-4.726563 11.03125-5.960937 14.140624-2.832031zm0 0" fill="#f6bb42"/><path d="m151.390625 260.867188c4.703125-4.695313 10.964844-6.007813 14.09375-2.777344 3.113281 3.121094 1.855469 9.449218-2.832031 14.144531-4.472656 4.472656-10.472656 5.824219-13.703125 3.167969-.160157-.054688-.328125-.214844-.441407-.335938-3.109374-3.113281-1.871093-9.457031 2.816407-14.144531zm0 0" fill="#f6bb42"/><path d="m190.980469 243.898438c-4.472657 4.472656-10.472657 5.832031-13.625 3.214843-.167969-.046875-.34375-.214843-.511719-.390625-3.160156-3.175781-1.855469-9.449218 2.832031-14.144531 4.707031-4.703125 10.96875-6 14.160157-2.832031 3.097656 3.121094 1.847656 9.457031-2.855469 14.152344zm0 0" fill="#f6bb42"/><path d="m204.964844 229.699219c167.097656-167.105469 138.703125-228.984375 138.703125-228.984375 4.707031-4.703125 31.28125 14.320312 59.394531 42.421875 28.125 28.121093 47.125 54.707031 42.421875 59.402343 0 0-61.871094-28.402343-228.984375 138.710938l-5.589844 5.59375-11.546875-11.53125zm0 0" fill="#edab37"/><path d="m239.070312 365.53125 16.96875 16.96875-.066406.046875c3.128906 3.121094 9.457032 1.863281 14.160156-2.832031 4.6875-4.6875 5.984376-11.082032 2.871094-14.175782l-16.964844-16.976562-45.25-45.265625-16.96875 16.96875zm0 0" fill="#ffce54"/><path d="m267.390625 337.21875 16.964844 16.96875-.0625.046875c3.113281 3.113281 9.457031 1.863281 14.160156-2.832031 4.6875-4.695313 5.984375-11.078125 2.871094-14.175782l-16.96875-16.976562-45.246094-45.261719-16.96875 16.972657zm0 0" fill="#ffce54"/><path d="m210.757812 393.84375 16.96875 16.964844-.050781.050781c3.113281 3.109375 9.441407 1.863281 14.144531-2.832031 4.6875-4.6875 5.984376-11.082032 2.871094-14.183594l-16.964844-16.96875-45.25-45.265625-16.96875 16.96875zm0 0" fill="#ffce54"/><path d="m199.390625 382.640625c-17.363281 17.433594-41.859375 42.042969-42.34375 42.515625-17.203125 17.183594-45.050781 17.183594-62.234375.007812-.984375-1.007812-1.917969-2.035156-2.800781-3.097656l-11.328125 11.34375 5.65625 5.65625c23.511718 20.695313 59.394531 19.792969 81.890625-2.710937l42.4375-42.441407zm0 0" fill="#edab37"/><path d="m83.996094 407.464844c-5-15.246094-1.488282-32.695313 10.65625-44.832032.488281-.476562 25.082031-24.992187 42.511718-42.328124l-11.277343-11.277344-42.441407 42.40625c-18.488281 18.511718-22.375 46.007812-11.703124 68.273437zm0 0" fill="#edab37"/><g fill="#ffce54"><path d="m131.542969 297.714844c-1.5625 1.558594-4.097657 1.558594-5.65625 0l-16.984375-16.984375c-1.5625-1.558594-1.5625-4.097657 0-5.65625 1.558594-1.558594 4.09375-1.558594 5.65625 0l16.984375 16.984375c1.558593 1.558594 1.558593 4.085937 0 5.65625zm0 0"/><path d="m159.871094 269.355469c-1.5625 1.558593-4.097656 1.558593-5.65625 0l-17.019532-16.90625c-1.558593-1.542969-1.574218-4.085938-.015624-5.65625 0 0 0 0 0-.007813 1.5625-1.558594 4.097656-1.558594 5.65625-.015625l17.035156 16.929688c1.558594 1.558593 1.558594 4.085937 0 5.65625zm0 0"/><path d="m188.164062 241.074219c-1.558593 1.558593-4.09375 1.558593-5.65625 0l-16.984374-16.976563c-1.558594-1.558594-1.558594-4.085937 0-5.65625 1.5625-1.558594 4.097656-1.558594 5.65625 0l16.984374 16.976563c1.570313 1.558593 1.570313 4.089843 0 5.65625zm0 0"/><path d="m295.589844 275.074219c-7.800782 7.800781-20.488282 7.800781-28.28125 0-7.816406-7.800781-7.816406-20.488281 0-28.28125 7.800781-7.804688 20.488281-7.804688 28.265625-.007813 3.800781 3.785156 5.886719 8.816406 5.886719 14.144532 0 5.328124-2.070313 10.34375-5.871094 14.144531zm-22.625-22.632813c-4.6875 4.679688-4.6875 12.289063 0 16.96875 4.671875 4.679688 12.28125 4.679688 16.96875 0 2.28125-2.28125 3.527344-5.296875 3.527344-8.496094 0-3.183593-1.265626-6.199218-3.542969-8.488281-4.671875-4.664062-12.28125-4.664062-16.953125.015625zm0 0"/><path d="m171.085938 399.539062c-3.753907 3.757813-8.753907 5.832032-14.082032 5.832032-5.359375 0-10.375-2.082032-14.167968-5.863282-1.558594-1.5625-1.558594-4.097656 0-5.65625 1.5625-1.5625 4.097656-1.5625 5.65625 0 2.28125 2.277344 5.296874 3.519532 8.503906 3.519532 3.210937 0 6.199218-1.25 8.457031-3.503906 0-.007813 0-.007813.015625-.015626 4.769531-4.769531 4.769531-12.21875 0-16.976562-1.558594-1.5625-1.558594-4.097656 0-5.65625s4.097656-1.558594 5.65625 0c7.800781 7.800781 7.800781 20.488281 0 28.28125-.007812.023438-.023438.023438-.039062.039062zm0 0"/><path d="m171.117188 376.882812c-1.558594 1.558594-4.097657 1.558594-5.65625 0l-16.96875-16.976562c-1.558594-1.558594-1.558594-4.097656 0-5.65625 1.5625-1.558594 4.097656-1.558594 5.65625 0l16.96875 16.976562c1.566406 1.558594 1.566406 4.097657 0 5.65625zm0 0"/><path d="m148.492188 399.507812c-1.558594 1.558594-4.09375 1.558594-5.65625 0l-16.964844-16.976562c-1.5625-1.5625-1.5625-4.097656 0-5.65625 1.558594-1.5625 4.09375-1.5625 5.652344 0l16.96875 16.976562c1.570312 1.566407 1.570312 4.09375 0 5.65625zm0 0"/></g><path d="m114.574219 263.761719c3.109375 3.113281 1.855469 9.441406-2.839844 14.144531-4.6875 4.6875-11.03125 5.9375-14.144531 2.832031-3.113282-3.105469-1.855469-9.457031 2.832031-14.144531 4.695313-4.710938 11.023437-5.953125 14.152344-2.832031zm0 0" fill="#656d78"/><path d="m142.902344 235.417969c3.109375 3.113281 1.816406 9.503906-2.890625 14.191406-4.6875 4.695313-11.015625 5.945313-14.140625 2.832031-3.097656-3.101562-1.859375-9.445312 2.832031-14.144531 4.695313-4.695313 11.085937-5.992187 14.199219-2.878906zm0 0" fill="#656d78"/><path d="m171.175781 207.148438c-3.121093-3.125-9.453125-1.863282-14.136719 2.816406-4.683593 4.683594-5.949218 11.011718-2.828124 14.136718 3.125 3.125 9.453124 1.863282 14.136718-2.820312 4.6875-4.679688 5.953125-11.007812 2.828125-14.132812zm0 0" fill="#656d78"/><path d="m8.277344 481.546875c0 2.214844-1.792969 4.007813-4.007813 4.007813-2.214843 0-4.007812-1.792969-4.007812-4.007813s1.792969-4.007813 4.007812-4.007813c2.214844 0 4.007813 1.792969 4.007813 4.007813zm0 0" fill="#656d78"/><path d="m25.246094 498.515625c0 2.210937-1.796875 4.007813-4.007813 4.007813-2.214843 0-4.007812-1.796876-4.007812-4.007813 0-2.214844 1.792969-4.007813 4.007812-4.007813 2.210938 0 4.007813 1.792969 4.007813 4.007813zm0 0" fill="#656d78"/><path d="m154.140625 422.15625 5.671875-5.664062 2.933594 2.9375-5.671875 5.664062zm0 0" fill="#e29f33"/><path d="m21.230469 470.234375 11.3125 11.3125-5.65625 16.976563-2.816407 2.816406-5.671874.015625-16.96875-16.96875v-5.679688l2.816406-2.816406zm0 0" fill="#656d78"/><path d="m323.871094 167.585938-.113282.113281-302.527343 302.535156 11.3125 11.3125 179.511719-179.511719 10.109374-10.113281 45.144532-45.136719 62.214844-62.230468 5.546874-5.542969c9.390626-9.386719 24.542969-9.394531 33.933594 0 9.394532 9.390625 9.394532 24.558593 0 33.933593l-95.957031 95.984376 11.308594 11.320312 96.082031-96.105469c15.609375-15.605469 15.609375-40.949219 0-56.558593-15.609375-15.609376-40.960938-15.609376-56.566406 0zm0 0" fill="#f6bb42"/></svg>